<mxfile host="Electron" agent="Mozilla/5.0 (Windows NT 10.0; Win64; x64) AppleWebKit/537.36 (KHTML, like Gecko) draw.io/26.0.4 Chrome/128.0.6613.186 Electron/32.2.5 Safari/537.36" version="26.0.4">
  <diagram name="Page-1" id="74b105a0-9070-1c63-61bc-23e55f88626e">
    <mxGraphModel dx="2333" dy="2726" grid="1" gridSize="10" guides="1" tooltips="1" connect="1" arrows="1" fold="1" page="1" pageScale="1.5" pageWidth="1169" pageHeight="826" background="none" math="0" shadow="0">
      <root>
        <mxCell id="0" style=";html=1;" />
        <mxCell id="1" style=";html=1;" parent="0" />
        <mxCell id="FF-R6CvPEgAhkOxUqDVy-12" style="edgeStyle=orthogonalEdgeStyle;rounded=0;orthogonalLoop=1;jettySize=auto;html=1;entryX=0.232;entryY=1;entryDx=0;entryDy=0;entryPerimeter=0;strokeColor=light-dark(#000000,#FFFF33);dashed=1;flowAnimation=1;startArrow=classic;startFill=1;strokeWidth=2;" edge="1" parent="1" source="vNuuODAQqOZ8VfHXZ4Zw-4">
          <mxGeometry relative="1" as="geometry">
            <mxPoint x="564.12" y="220" as="targetPoint" />
          </mxGeometry>
        </mxCell>
        <mxCell id="vNuuODAQqOZ8VfHXZ4Zw-4" value="" style="shape=hexagon;perimeter=hexagonPerimeter2;whiteSpace=wrap;html=1;fixedSize=1;fillColor=#66FF66;strokeColor=#00994D;fontColor=#ffffff;strokeWidth=0;" parent="1" vertex="1">
          <mxGeometry x="460" y="341" width="209.09" height="170" as="geometry" />
        </mxCell>
        <mxCell id="vNuuODAQqOZ8VfHXZ4Zw-5" value="&lt;font style=&quot;color: rgb(0, 0, 0); font-size: 20px;&quot;&gt;&lt;b&gt;User Service&lt;/b&gt;&lt;/font&gt;" style="text;html=1;align=center;verticalAlign=middle;whiteSpace=wrap;rounded=0;" parent="1" vertex="1">
          <mxGeometry x="534.55" y="411" width="60" height="30" as="geometry" />
        </mxCell>
        <mxCell id="FF-R6CvPEgAhkOxUqDVy-16" style="edgeStyle=orthogonalEdgeStyle;rounded=0;orthogonalLoop=1;jettySize=auto;html=1;entryX=1;entryY=0.25;entryDx=0;entryDy=0;dashed=1;flowAnimation=1;startArrow=none;startFill=0;strokeWidth=2;" edge="1" parent="1" source="vNuuODAQqOZ8VfHXZ4Zw-9" target="vNuuODAQqOZ8VfHXZ4Zw-4">
          <mxGeometry relative="1" as="geometry" />
        </mxCell>
        <mxCell id="FF-R6CvPEgAhkOxUqDVy-22" style="edgeStyle=orthogonalEdgeStyle;rounded=0;orthogonalLoop=1;jettySize=auto;html=1;startArrow=classic;startFill=1;strokeColor=#FFFF33;flowAnimation=1;strokeWidth=2;" edge="1" parent="1" source="vNuuODAQqOZ8VfHXZ4Zw-9">
          <mxGeometry relative="1" as="geometry">
            <mxPoint x="840" y="220.0000000000001" as="targetPoint" />
          </mxGeometry>
        </mxCell>
        <mxCell id="vNuuODAQqOZ8VfHXZ4Zw-9" value="" style="shape=hexagon;perimeter=hexagonPerimeter2;whiteSpace=wrap;html=1;fixedSize=1;fillColor=#66FF66;strokeColor=#00994D;fontColor=#ffffff;strokeWidth=0;" parent="1" vertex="1">
          <mxGeometry x="770" y="290" width="140" height="110" as="geometry" />
        </mxCell>
        <mxCell id="vNuuODAQqOZ8VfHXZ4Zw-10" value="&lt;font style=&quot;color: rgb(0, 0, 0); font-size: 20px;&quot;&gt;&lt;b&gt;Tag Service&lt;/b&gt;&lt;/font&gt;" style="text;html=1;align=center;verticalAlign=middle;whiteSpace=wrap;rounded=0;" parent="1" vertex="1">
          <mxGeometry x="810" y="330" width="60" height="30" as="geometry" />
        </mxCell>
        <mxCell id="FF-R6CvPEgAhkOxUqDVy-21" style="edgeStyle=orthogonalEdgeStyle;rounded=0;orthogonalLoop=1;jettySize=auto;html=1;entryX=1;entryY=0.75;entryDx=0;entryDy=0;dashed=1;flowAnimation=1;strokeWidth=2;" edge="1" parent="1" source="vNuuODAQqOZ8VfHXZ4Zw-11" target="vNuuODAQqOZ8VfHXZ4Zw-4">
          <mxGeometry relative="1" as="geometry">
            <Array as="points">
              <mxPoint x="1241" y="465" />
            </Array>
          </mxGeometry>
        </mxCell>
        <mxCell id="FF-R6CvPEgAhkOxUqDVy-23" style="edgeStyle=orthogonalEdgeStyle;rounded=0;orthogonalLoop=1;jettySize=auto;html=1;dashed=1;startArrow=classic;startFill=1;strokeColor=#FFFF33;flowAnimation=1;strokeWidth=2;" edge="1" parent="1" source="vNuuODAQqOZ8VfHXZ4Zw-11">
          <mxGeometry relative="1" as="geometry">
            <mxPoint x="1240.66" y="220.0000000000001" as="targetPoint" />
          </mxGeometry>
        </mxCell>
        <mxCell id="vNuuODAQqOZ8VfHXZ4Zw-11" value="" style="shape=hexagon;perimeter=hexagonPerimeter2;whiteSpace=wrap;html=1;fixedSize=1;fillColor=#66FF66;strokeColor=#00994D;fontColor=#ffffff;strokeWidth=0;" parent="1" vertex="1">
          <mxGeometry x="1170.66" y="290" width="140" height="110" as="geometry" />
        </mxCell>
        <mxCell id="vNuuODAQqOZ8VfHXZ4Zw-12" value="&lt;font style=&quot;color: rgb(0, 0, 0); font-size: 20px;&quot;&gt;&lt;b&gt;Topic Service&lt;/b&gt;&lt;/font&gt;" style="text;html=1;align=center;verticalAlign=middle;whiteSpace=wrap;rounded=0;" parent="1" vertex="1">
          <mxGeometry x="1210.66" y="330" width="60" height="30" as="geometry" />
        </mxCell>
        <mxCell id="vNuuODAQqOZ8VfHXZ4Zw-13" value="" style="shape=hexagon;perimeter=hexagonPerimeter2;whiteSpace=wrap;html=1;fixedSize=1;fillColor=#66FF66;strokeColor=#00994D;fontColor=#ffffff;strokeWidth=0;" parent="1" vertex="1">
          <mxGeometry x="489.99999999999994" y="656" width="140" height="110" as="geometry" />
        </mxCell>
        <mxCell id="vNuuODAQqOZ8VfHXZ4Zw-14" value="&lt;font style=&quot;color: rgb(0, 0, 0); font-size: 20px;&quot;&gt;&lt;b&gt;Like Service&lt;/b&gt;&lt;/font&gt;" style="text;html=1;align=center;verticalAlign=middle;whiteSpace=wrap;rounded=0;" parent="1" vertex="1">
          <mxGeometry x="530" y="696" width="60" height="30" as="geometry" />
        </mxCell>
        <mxCell id="vNuuODAQqOZ8VfHXZ4Zw-15" value="" style="shape=hexagon;perimeter=hexagonPerimeter2;whiteSpace=wrap;html=1;fixedSize=1;fillColor=#66FF66;strokeColor=#00994D;fontColor=#ffffff;strokeWidth=0;" parent="1" vertex="1">
          <mxGeometry x="1070.66" y="691" width="140" height="110" as="geometry" />
        </mxCell>
        <mxCell id="vNuuODAQqOZ8VfHXZ4Zw-16" value="&lt;font style=&quot;color: rgb(0, 0, 0); font-size: 20px;&quot;&gt;&lt;b&gt;Comment Service&lt;/b&gt;&lt;/font&gt;" style="text;html=1;align=center;verticalAlign=middle;whiteSpace=wrap;rounded=0;" parent="1" vertex="1">
          <mxGeometry x="1110.66" y="731" width="60" height="30" as="geometry" />
        </mxCell>
        <mxCell id="FF-R6CvPEgAhkOxUqDVy-24" style="edgeStyle=orthogonalEdgeStyle;rounded=0;orthogonalLoop=1;jettySize=auto;html=1;strokeColor=#66FF66;startArrow=classic;startFill=1;dashed=1;flowAnimation=1;strokeWidth=2;" edge="1" parent="1" source="vNuuODAQqOZ8VfHXZ4Zw-17">
          <mxGeometry relative="1" as="geometry">
            <mxPoint x="560" y="770" as="targetPoint" />
          </mxGeometry>
        </mxCell>
        <mxCell id="vNuuODAQqOZ8VfHXZ4Zw-17" value="" style="image;aspect=fixed;html=1;points=[];align=center;fontSize=12;image=img/lib/azure2/other/Managed_Instance_Apache_Cassandra.svg;" parent="1" vertex="1">
          <mxGeometry x="505" y="870" width="110" height="110" as="geometry" />
        </mxCell>
        <mxCell id="vNuuODAQqOZ8VfHXZ4Zw-26" style="edgeStyle=orthogonalEdgeStyle;rounded=0;orthogonalLoop=1;jettySize=auto;html=1;entryX=0.5;entryY=1;entryDx=0;entryDy=0;strokeWidth=2;dashed=1;strokeColor=#66FF66;flowAnimation=1;startArrow=classic;startFill=1;" parent="1" source="vNuuODAQqOZ8VfHXZ4Zw-25" target="vNuuODAQqOZ8VfHXZ4Zw-15" edge="1">
          <mxGeometry relative="1" as="geometry" />
        </mxCell>
        <mxCell id="vNuuODAQqOZ8VfHXZ4Zw-25" value="" style="image;aspect=fixed;html=1;points=[];align=center;fontSize=12;image=img/lib/azure2/databases/Azure_Database_PostgreSQL_Server.svg;" parent="1" vertex="1">
          <mxGeometry x="1105.41" y="901" width="70.5" height="94" as="geometry" />
        </mxCell>
        <mxCell id="FF-R6CvPEgAhkOxUqDVy-34" style="edgeStyle=orthogonalEdgeStyle;rounded=0;orthogonalLoop=1;jettySize=auto;html=1;exitX=0.375;exitY=1;exitDx=0;exitDy=0;entryX=1;entryY=0.5;entryDx=0;entryDy=0;strokeWidth=2;dashed=1;flowAnimation=1;" edge="1" parent="1" source="vNuuODAQqOZ8VfHXZ4Zw-27" target="vNuuODAQqOZ8VfHXZ4Zw-4">
          <mxGeometry relative="1" as="geometry" />
        </mxCell>
        <mxCell id="vNuuODAQqOZ8VfHXZ4Zw-27" value="" style="shape=hexagon;perimeter=hexagonPerimeter2;whiteSpace=wrap;html=1;fixedSize=1;fillColor=#66FF66;strokeColor=#00994D;fontColor=#ffffff;strokeWidth=0;" parent="1" vertex="1">
          <mxGeometry x="1570" y="290" width="140" height="110" as="geometry" />
        </mxCell>
        <mxCell id="vNuuODAQqOZ8VfHXZ4Zw-28" value="&lt;font style=&quot;color: rgb(0, 0, 0); font-size: 20px;&quot;&gt;&lt;b&gt;Poll Service&lt;/b&gt;&lt;/font&gt;" style="text;html=1;align=center;verticalAlign=middle;whiteSpace=wrap;rounded=0;" parent="1" vertex="1">
          <mxGeometry x="1610" y="330" width="60" height="30" as="geometry" />
        </mxCell>
        <mxCell id="vNuuODAQqOZ8VfHXZ4Zw-29" style="edgeStyle=orthogonalEdgeStyle;rounded=0;orthogonalLoop=1;jettySize=auto;html=1;entryX=0.5;entryY=1;entryDx=0;entryDy=0;strokeWidth=2;dashed=1;strokeColor=#66FF66;flowAnimation=1;startArrow=classic;startFill=1;" parent="1" source="vNuuODAQqOZ8VfHXZ4Zw-30" target="vNuuODAQqOZ8VfHXZ4Zw-27" edge="1">
          <mxGeometry relative="1" as="geometry" />
        </mxCell>
        <mxCell id="vNuuODAQqOZ8VfHXZ4Zw-30" value="" style="image;aspect=fixed;html=1;points=[];align=center;fontSize=12;image=img/lib/azure2/databases/Azure_Database_PostgreSQL_Server.svg;" parent="1" vertex="1">
          <mxGeometry x="1604.75" y="500" width="70.5" height="94" as="geometry" />
        </mxCell>
        <mxCell id="FF-R6CvPEgAhkOxUqDVy-14" style="edgeStyle=orthogonalEdgeStyle;rounded=0;orthogonalLoop=1;jettySize=auto;html=1;dashed=1;flowAnimation=1;startArrow=classic;startFill=1;strokeWidth=2;" edge="1" parent="1" source="vNuuODAQqOZ8VfHXZ4Zw-31">
          <mxGeometry relative="1" as="geometry">
            <mxPoint x="470" y="384" as="targetPoint" />
          </mxGeometry>
        </mxCell>
        <mxCell id="vNuuODAQqOZ8VfHXZ4Zw-31" value="" style="shape=hexagon;perimeter=hexagonPerimeter2;whiteSpace=wrap;html=1;fixedSize=1;fillColor=#FF8000;strokeColor=#FF3333;fontColor=#ffffff;strokeWidth=0;" parent="1" vertex="1">
          <mxGeometry x="70" y="330" width="140" height="110" as="geometry" />
        </mxCell>
        <mxCell id="vNuuODAQqOZ8VfHXZ4Zw-32" value="&lt;font style=&quot;color: rgb(0, 0, 0); font-size: 20px;&quot;&gt;&lt;b&gt;Auth Server&lt;/b&gt;&lt;/font&gt;" style="text;html=1;align=center;verticalAlign=middle;whiteSpace=wrap;rounded=0;" parent="1" vertex="1">
          <mxGeometry x="110" y="370" width="60" height="30" as="geometry" />
        </mxCell>
        <mxCell id="FF-R6CvPEgAhkOxUqDVy-7" style="edgeStyle=orthogonalEdgeStyle;rounded=0;orthogonalLoop=1;jettySize=auto;html=1;entryX=0.5;entryY=1;entryDx=0;entryDy=0;strokeColor=#66FF66;flowAnimation=1;dashed=1;strokeWidth=2;startArrow=classic;startFill=1;" edge="1" parent="1" source="vNuuODAQqOZ8VfHXZ4Zw-34" target="vNuuODAQqOZ8VfHXZ4Zw-31">
          <mxGeometry relative="1" as="geometry" />
        </mxCell>
        <mxCell id="vNuuODAQqOZ8VfHXZ4Zw-34" value="" style="image;aspect=fixed;html=1;points=[];align=center;fontSize=12;image=img/lib/azure2/databases/Azure_Database_PostgreSQL_Server.svg;" parent="1" vertex="1">
          <mxGeometry x="97.24999999999994" y="560" width="85.5" height="114" as="geometry" />
        </mxCell>
        <mxCell id="vNuuODAQqOZ8VfHXZ4Zw-37" value="" style="shape=hexagon;perimeter=hexagonPerimeter2;whiteSpace=wrap;html=1;fixedSize=1;fillColor=#66FF66;strokeColor=#00994D;fontColor=#ffffff;strokeWidth=0;" parent="1" vertex="1">
          <mxGeometry x="1820" y="290" width="140" height="110" as="geometry" />
        </mxCell>
        <mxCell id="vNuuODAQqOZ8VfHXZ4Zw-38" value="&lt;font style=&quot;color: rgb(0, 0, 0); font-size: 20px;&quot;&gt;&lt;b&gt;Media Service&lt;/b&gt;&lt;/font&gt;" style="text;html=1;align=center;verticalAlign=middle;whiteSpace=wrap;rounded=0;" parent="1" vertex="1">
          <mxGeometry x="1860.01" y="330" width="60" height="30" as="geometry" />
        </mxCell>
        <mxCell id="vNuuODAQqOZ8VfHXZ4Zw-41" style="edgeStyle=orthogonalEdgeStyle;rounded=0;orthogonalLoop=1;jettySize=auto;html=1;strokeWidth=2;dashed=1;startArrow=classic;startFill=1;strokeColor=#66FF66;flowAnimation=1;entryX=0.5;entryY=1;entryDx=0;entryDy=0;" parent="1" source="vNuuODAQqOZ8VfHXZ4Zw-40" target="vNuuODAQqOZ8VfHXZ4Zw-37" edge="1">
          <mxGeometry relative="1" as="geometry">
            <mxPoint x="1890" y="290" as="targetPoint" />
          </mxGeometry>
        </mxCell>
        <mxCell id="vNuuODAQqOZ8VfHXZ4Zw-40" value="" style="dashed=0;outlineConnect=0;html=1;align=center;labelPosition=center;verticalLabelPosition=bottom;verticalAlign=top;shape=mxgraph.weblogos.mongodb" parent="1" vertex="1">
          <mxGeometry x="1860" y="495" width="60" height="120" as="geometry" />
        </mxCell>
        <mxCell id="FF-R6CvPEgAhkOxUqDVy-27" style="edgeStyle=orthogonalEdgeStyle;rounded=0;orthogonalLoop=1;jettySize=auto;html=1;entryX=0.625;entryY=1;entryDx=0;entryDy=0;strokeWidth=2;flowAnimation=1;dashed=1;" edge="1" parent="1" source="vNuuODAQqOZ8VfHXZ4Zw-42" target="vNuuODAQqOZ8VfHXZ4Zw-4">
          <mxGeometry relative="1" as="geometry" />
        </mxCell>
        <mxCell id="FF-R6CvPEgAhkOxUqDVy-28" style="edgeStyle=orthogonalEdgeStyle;rounded=0;orthogonalLoop=1;jettySize=auto;html=1;entryX=1;entryY=0.5;entryDx=0;entryDy=0;strokeWidth=2;dashed=1;flowAnimation=1;startArrow=classic;startFill=1;" edge="1" parent="1" source="vNuuODAQqOZ8VfHXZ4Zw-42" target="vNuuODAQqOZ8VfHXZ4Zw-13">
          <mxGeometry relative="1" as="geometry">
            <Array as="points">
              <mxPoint x="730" y="710" />
              <mxPoint x="730" y="711" />
            </Array>
          </mxGeometry>
        </mxCell>
        <mxCell id="vNuuODAQqOZ8VfHXZ4Zw-42" value="" style="shape=hexagon;perimeter=hexagonPerimeter2;whiteSpace=wrap;html=1;fixedSize=1;fillColor=#66FF66;strokeColor=#00994D;fontColor=#ffffff;strokeWidth=0;" parent="1" vertex="1">
          <mxGeometry x="830" y="546" width="220" height="184" as="geometry" />
        </mxCell>
        <mxCell id="vNuuODAQqOZ8VfHXZ4Zw-43" value="&lt;font style=&quot;color: rgb(0, 0, 0); font-size: 20px;&quot;&gt;&lt;b&gt;Content Service&lt;/b&gt;&lt;/font&gt;" style="text;html=1;align=center;verticalAlign=middle;whiteSpace=wrap;rounded=0;" parent="1" vertex="1">
          <mxGeometry x="910.0000000000001" y="623" width="60" height="30" as="geometry" />
        </mxCell>
        <mxCell id="vNuuODAQqOZ8VfHXZ4Zw-45" value="" style="dashed=0;outlineConnect=0;html=1;align=center;labelPosition=center;verticalLabelPosition=bottom;verticalAlign=top;shape=mxgraph.weblogos.mongodb;direction=west;" parent="1" vertex="1">
          <mxGeometry x="730" y="875" width="60" height="120" as="geometry" />
        </mxCell>
        <mxCell id="FF-R6CvPEgAhkOxUqDVy-13" style="edgeStyle=orthogonalEdgeStyle;rounded=0;orthogonalLoop=1;jettySize=auto;html=1;entryX=0;entryY=0.5;entryDx=0;entryDy=0;strokeWidth=2;flowAnimation=1;dashed=1;startArrow=classic;startFill=1;strokeColor=#66FF66;" edge="1" parent="1" source="vNuuODAQqOZ8VfHXZ4Zw-46" target="vNuuODAQqOZ8VfHXZ4Zw-4">
          <mxGeometry relative="1" as="geometry" />
        </mxCell>
        <mxCell id="vNuuODAQqOZ8VfHXZ4Zw-46" value="" style="image;aspect=fixed;html=1;points=[];align=center;fontSize=12;image=img/lib/azure2/databases/Azure_Database_MySQL_Server.svg;" parent="1" vertex="1">
          <mxGeometry x="269.99999999999994" y="560" width="82.5" height="110" as="geometry" />
        </mxCell>
        <mxCell id="vNuuODAQqOZ8VfHXZ4Zw-48" value="" style="image;aspect=fixed;html=1;points=[];align=center;fontSize=12;image=img/lib/azure2/databases/Azure_Database_MySQL_Server.svg;" parent="1" vertex="1">
          <mxGeometry x="1010" y="305.12" width="63.66" height="84.88" as="geometry" />
        </mxCell>
        <mxCell id="FF-R6CvPEgAhkOxUqDVy-58" style="edgeStyle=orthogonalEdgeStyle;rounded=0;orthogonalLoop=1;jettySize=auto;html=1;dashed=1;flowAnimation=1;strokeWidth=2;" edge="1" parent="1" source="vNuuODAQqOZ8VfHXZ4Zw-49">
          <mxGeometry relative="1" as="geometry">
            <mxPoint x="2000" y="405" as="targetPoint" />
          </mxGeometry>
        </mxCell>
        <mxCell id="vNuuODAQqOZ8VfHXZ4Zw-49" value="" style="points=[];aspect=fixed;html=1;align=center;shadow=0;dashed=0;fillColor=#FF6A00;strokeColor=none;shape=mxgraph.alibaba_cloud.cloud_config;" parent="1" vertex="1">
          <mxGeometry x="2140" y="341" width="126.4" height="128" as="geometry" />
        </mxCell>
        <mxCell id="FF-R6CvPEgAhkOxUqDVy-57" style="edgeStyle=orthogonalEdgeStyle;rounded=0;orthogonalLoop=1;jettySize=auto;html=1;dashed=1;flowAnimation=1;strokeWidth=2;" edge="1" parent="1" source="vNuuODAQqOZ8VfHXZ4Zw-50">
          <mxGeometry relative="1" as="geometry">
            <mxPoint x="2000" y="160" as="targetPoint" />
          </mxGeometry>
        </mxCell>
        <mxCell id="vNuuODAQqOZ8VfHXZ4Zw-50" value="" style="outlineConnect=0;dashed=0;verticalLabelPosition=bottom;verticalAlign=top;align=center;html=1;shape=mxgraph.aws3.application_discovery_service;fillColor=#5294CF;gradientColor=none;" parent="1" vertex="1">
          <mxGeometry x="2130" y="84" width="120" height="152" as="geometry" />
        </mxCell>
        <mxCell id="vNuuODAQqOZ8VfHXZ4Zw-51" value="&lt;font style=&quot;font-size: 23px;&quot;&gt;&lt;b style=&quot;&quot;&gt;Config Server&lt;/b&gt;&lt;/font&gt;" style="text;html=1;align=center;verticalAlign=middle;whiteSpace=wrap;rounded=0;" parent="1" vertex="1">
          <mxGeometry x="2290" y="150" width="60" height="30" as="geometry" />
        </mxCell>
        <mxCell id="vNuuODAQqOZ8VfHXZ4Zw-54" value="&lt;font style=&quot;font-size: 23px;&quot;&gt;&lt;b style=&quot;&quot;&gt;Discovery&lt;/b&gt;&lt;/font&gt;&lt;div&gt;&lt;font style=&quot;font-size: 23px;&quot;&gt;&lt;b style=&quot;&quot;&gt;Server&lt;/b&gt;&lt;/font&gt;&lt;/div&gt;" style="text;html=1;align=center;verticalAlign=middle;whiteSpace=wrap;rounded=0;" parent="1" vertex="1">
          <mxGeometry x="2330" y="390" width="60" height="30" as="geometry" />
        </mxCell>
        <mxCell id="FF-R6CvPEgAhkOxUqDVy-60" style="edgeStyle=orthogonalEdgeStyle;rounded=0;orthogonalLoop=1;jettySize=auto;html=1;strokeWidth=2;dashed=1;flowAnimation=1;" edge="1" parent="1" source="vNuuODAQqOZ8VfHXZ4Zw-65">
          <mxGeometry relative="1" as="geometry">
            <mxPoint x="2000" y="666.25" as="targetPoint" />
          </mxGeometry>
        </mxCell>
        <mxCell id="vNuuODAQqOZ8VfHXZ4Zw-65" value="" style="image;sketch=0;aspect=fixed;html=1;points=[];align=center;fontSize=12;image=img/lib/mscae/Cache_Redis_Product.svg;" parent="1" vertex="1">
          <mxGeometry x="2150" y="615" width="122.02" height="102.5" as="geometry" />
        </mxCell>
        <mxCell id="FF-R6CvPEgAhkOxUqDVy-5" value="&lt;font style=&quot;color: rgb(0, 0, 0); font-size: 31px;&quot;&gt;&lt;b style=&quot;&quot;&gt;API GateWay&lt;/b&gt;&lt;/font&gt;" style="rounded=0;whiteSpace=wrap;html=1;fillColor=#FF8000;strokeColor=none;" vertex="1" parent="1">
          <mxGeometry x="60" y="50" width="1880" height="170" as="geometry" />
        </mxCell>
        <mxCell id="FF-R6CvPEgAhkOxUqDVy-8" style="edgeStyle=orthogonalEdgeStyle;rounded=0;orthogonalLoop=1;jettySize=auto;html=1;entryX=0.043;entryY=0.984;entryDx=0;entryDy=0;entryPerimeter=0;flowAnimation=1;strokeWidth=2;strokeColor=#FF0000;startArrow=classic;startFill=1;" edge="1" parent="1" source="vNuuODAQqOZ8VfHXZ4Zw-31" target="FF-R6CvPEgAhkOxUqDVy-5">
          <mxGeometry relative="1" as="geometry" />
        </mxCell>
        <mxCell id="FF-R6CvPEgAhkOxUqDVy-15" style="edgeStyle=orthogonalEdgeStyle;rounded=0;orthogonalLoop=1;jettySize=auto;html=1;entryX=-0.052;entryY=0.475;entryDx=0;entryDy=0;entryPerimeter=0;dashed=1;flowAnimation=1;strokeColor=#66FF66;strokeWidth=2;startArrow=classic;startFill=1;" edge="1" parent="1" source="vNuuODAQqOZ8VfHXZ4Zw-9" target="vNuuODAQqOZ8VfHXZ4Zw-48">
          <mxGeometry relative="1" as="geometry" />
        </mxCell>
        <mxCell id="FF-R6CvPEgAhkOxUqDVy-17" value="" style="image;aspect=fixed;html=1;points=[];align=center;fontSize=12;image=img/lib/azure2/databases/Azure_Database_MySQL_Server.svg;" vertex="1" parent="1">
          <mxGeometry x="1410" y="302.56" width="63.66" height="84.88" as="geometry" />
        </mxCell>
        <mxCell id="FF-R6CvPEgAhkOxUqDVy-18" style="edgeStyle=orthogonalEdgeStyle;rounded=0;orthogonalLoop=1;jettySize=auto;html=1;entryX=-0.022;entryY=0.512;entryDx=0;entryDy=0;entryPerimeter=0;dashed=1;flowAnimation=1;strokeColor=#66FF66;strokeWidth=2;startArrow=classic;startFill=1;" edge="1" parent="1" source="vNuuODAQqOZ8VfHXZ4Zw-11" target="FF-R6CvPEgAhkOxUqDVy-17">
          <mxGeometry relative="1" as="geometry" />
        </mxCell>
        <mxCell id="FF-R6CvPEgAhkOxUqDVy-25" style="edgeStyle=orthogonalEdgeStyle;rounded=0;orthogonalLoop=1;jettySize=auto;html=1;entryX=0.478;entryY=1.01;entryDx=0;entryDy=0;entryPerimeter=0;flowAnimation=1;strokeWidth=2;dashed=1;" edge="1" parent="1" source="vNuuODAQqOZ8VfHXZ4Zw-13" target="vNuuODAQqOZ8VfHXZ4Zw-4">
          <mxGeometry relative="1" as="geometry" />
        </mxCell>
        <mxCell id="FF-R6CvPEgAhkOxUqDVy-26" style="edgeStyle=orthogonalEdgeStyle;rounded=0;orthogonalLoop=1;jettySize=auto;html=1;entryX=0.973;entryY=1.027;entryDx=0;entryDy=0;entryPerimeter=0;strokeColor=#FFFF33;startArrow=classic;startFill=1;flowAnimation=1;strokeWidth=2;" edge="1" parent="1" source="vNuuODAQqOZ8VfHXZ4Zw-37" target="FF-R6CvPEgAhkOxUqDVy-5">
          <mxGeometry relative="1" as="geometry" />
        </mxCell>
        <mxCell id="FF-R6CvPEgAhkOxUqDVy-30" style="edgeStyle=orthogonalEdgeStyle;rounded=0;orthogonalLoop=1;jettySize=auto;html=1;entryX=0.719;entryY=1.043;entryDx=0;entryDy=0;entryPerimeter=0;strokeWidth=2;flowAnimation=1;dashed=1;" edge="1" parent="1" source="vNuuODAQqOZ8VfHXZ4Zw-42" target="vNuuODAQqOZ8VfHXZ4Zw-11">
          <mxGeometry relative="1" as="geometry" />
        </mxCell>
        <mxCell id="FF-R6CvPEgAhkOxUqDVy-31" style="edgeStyle=orthogonalEdgeStyle;rounded=0;orthogonalLoop=1;jettySize=auto;html=1;entryX=0.468;entryY=1;entryDx=0;entryDy=0;entryPerimeter=0;strokeWidth=2;strokeColor=#FFFF33;flowAnimation=1;dashed=1;startArrow=classic;startFill=1;" edge="1" parent="1" source="vNuuODAQqOZ8VfHXZ4Zw-42" target="FF-R6CvPEgAhkOxUqDVy-5">
          <mxGeometry relative="1" as="geometry" />
        </mxCell>
        <mxCell id="FF-R6CvPEgAhkOxUqDVy-32" style="edgeStyle=orthogonalEdgeStyle;rounded=0;orthogonalLoop=1;jettySize=auto;html=1;entryX=0.305;entryY=1.02;entryDx=0;entryDy=0;entryPerimeter=0;strokeWidth=2;strokeColor=#66FF66;dashed=1;startArrow=classic;startFill=1;flowAnimation=1;" edge="1" parent="1" source="vNuuODAQqOZ8VfHXZ4Zw-45" target="vNuuODAQqOZ8VfHXZ4Zw-42">
          <mxGeometry relative="1" as="geometry" />
        </mxCell>
        <mxCell id="FF-R6CvPEgAhkOxUqDVy-33" style="edgeStyle=orthogonalEdgeStyle;rounded=0;orthogonalLoop=1;jettySize=auto;html=1;entryX=0.84;entryY=1.008;entryDx=0;entryDy=0;entryPerimeter=0;strokeWidth=2;strokeColor=#FFFF33;flowAnimation=1;dashed=1;startArrow=classic;startFill=1;" edge="1" parent="1" source="vNuuODAQqOZ8VfHXZ4Zw-27" target="FF-R6CvPEgAhkOxUqDVy-5">
          <mxGeometry relative="1" as="geometry" />
        </mxCell>
        <mxCell id="FF-R6CvPEgAhkOxUqDVy-35" style="edgeStyle=orthogonalEdgeStyle;rounded=0;orthogonalLoop=1;jettySize=auto;html=1;exitX=0.375;exitY=0;exitDx=0;exitDy=0;entryX=0.714;entryY=1;entryDx=0;entryDy=0;entryPerimeter=0;dashed=1;flowAnimation=1;strokeWidth=2;startArrow=classic;startFill=1;" edge="1" parent="1" source="vNuuODAQqOZ8VfHXZ4Zw-42" target="vNuuODAQqOZ8VfHXZ4Zw-9">
          <mxGeometry relative="1" as="geometry">
            <Array as="points">
              <mxPoint x="913" y="500" />
              <mxPoint x="870" y="500" />
            </Array>
          </mxGeometry>
        </mxCell>
        <mxCell id="FF-R6CvPEgAhkOxUqDVy-36" style="edgeStyle=orthogonalEdgeStyle;rounded=0;orthogonalLoop=1;jettySize=auto;html=1;entryX=0.575;entryY=1;entryDx=0;entryDy=0;entryPerimeter=0;strokeWidth=2;strokeColor=#FFFF33;flowAnimation=1;dashed=1;startArrow=classic;startFill=1;" edge="1" parent="1" source="vNuuODAQqOZ8VfHXZ4Zw-15" target="FF-R6CvPEgAhkOxUqDVy-5">
          <mxGeometry relative="1" as="geometry" />
        </mxCell>
        <mxCell id="FF-R6CvPEgAhkOxUqDVy-37" style="edgeStyle=orthogonalEdgeStyle;rounded=0;orthogonalLoop=1;jettySize=auto;html=1;exitX=0;exitY=0.75;exitDx=0;exitDy=0;entryX=0.943;entryY=0.828;entryDx=0;entryDy=0;entryPerimeter=0;strokeWidth=2;dashed=1;flowAnimation=1;" edge="1" parent="1" source="vNuuODAQqOZ8VfHXZ4Zw-15" target="vNuuODAQqOZ8VfHXZ4Zw-4">
          <mxGeometry relative="1" as="geometry">
            <Array as="points">
              <mxPoint x="740" y="770" />
              <mxPoint x="740" y="482" />
            </Array>
          </mxGeometry>
        </mxCell>
        <mxCell id="FF-R6CvPEgAhkOxUqDVy-41" value="&lt;span style=&quot;font-size: 23px;&quot;&gt;&lt;b&gt;Redis Cache&lt;/b&gt;&lt;/span&gt;" style="text;html=1;align=center;verticalAlign=middle;whiteSpace=wrap;rounded=0;" vertex="1" parent="1">
          <mxGeometry x="2330" y="640" width="60" height="30" as="geometry" />
        </mxCell>
        <mxCell id="FF-R6CvPEgAhkOxUqDVy-43" value="" style="verticalLabelPosition=bottom;html=1;verticalAlign=top;align=center;strokeColor=none;fillColor=#00BEF2;shape=mxgraph.azure.queue_generic;pointerEvents=1;direction=north;" vertex="1" parent="1">
          <mxGeometry x="770" y="480" width="35" height="89" as="geometry" />
        </mxCell>
        <mxCell id="FF-R6CvPEgAhkOxUqDVy-45" style="edgeStyle=orthogonalEdgeStyle;rounded=0;orthogonalLoop=1;jettySize=auto;html=1;exitX=0;exitY=0.25;exitDx=0;exitDy=0;entryX=0;entryY=0.5;entryDx=0;entryDy=0;entryPerimeter=0;strokeColor=#FF0080;strokeWidth=2;" edge="1" parent="1" source="vNuuODAQqOZ8VfHXZ4Zw-42" target="FF-R6CvPEgAhkOxUqDVy-43">
          <mxGeometry relative="1" as="geometry" />
        </mxCell>
        <mxCell id="FF-R6CvPEgAhkOxUqDVy-46" style="edgeStyle=orthogonalEdgeStyle;rounded=0;orthogonalLoop=1;jettySize=auto;html=1;entryX=0.125;entryY=1;entryDx=0;entryDy=0;entryPerimeter=0;strokeWidth=2;strokeColor=#FF0080;" edge="1" parent="1" source="FF-R6CvPEgAhkOxUqDVy-43" target="vNuuODAQqOZ8VfHXZ4Zw-9">
          <mxGeometry relative="1" as="geometry" />
        </mxCell>
        <mxCell id="FF-R6CvPEgAhkOxUqDVy-54" style="edgeStyle=orthogonalEdgeStyle;rounded=0;orthogonalLoop=1;jettySize=auto;html=1;entryX=0;entryY=0.5;entryDx=0;entryDy=0;strokeWidth=2;strokeColor=#FF0080;" edge="1" parent="1" source="FF-R6CvPEgAhkOxUqDVy-47" target="FF-R6CvPEgAhkOxUqDVy-48">
          <mxGeometry relative="1" as="geometry" />
        </mxCell>
        <mxCell id="FF-R6CvPEgAhkOxUqDVy-47" value="" style="verticalLabelPosition=bottom;html=1;verticalAlign=top;align=center;strokeColor=none;fillColor=#00BEF2;shape=mxgraph.azure.queue_generic;pointerEvents=1;direction=east;" vertex="1" parent="1">
          <mxGeometry x="1250" y="653" width="89" height="35" as="geometry" />
        </mxCell>
        <mxCell id="FF-R6CvPEgAhkOxUqDVy-48" value="" style="shape=hexagon;perimeter=hexagonPerimeter2;whiteSpace=wrap;html=1;fixedSize=1;fillColor=#66FF66;strokeColor=#00994D;fontColor=#ffffff;strokeWidth=0;" vertex="1" parent="1">
          <mxGeometry x="1450" y="640" width="140" height="110" as="geometry" />
        </mxCell>
        <mxCell id="FF-R6CvPEgAhkOxUqDVy-49" value="&lt;font style=&quot;color: rgb(0, 0, 0); font-size: 20px;&quot;&gt;&lt;b&gt;Search Service&lt;/b&gt;&lt;/font&gt;" style="text;html=1;align=center;verticalAlign=middle;whiteSpace=wrap;rounded=0;" vertex="1" parent="1">
          <mxGeometry x="1490" y="680" width="60" height="30" as="geometry" />
        </mxCell>
        <mxCell id="FF-R6CvPEgAhkOxUqDVy-51" style="edgeStyle=orthogonalEdgeStyle;rounded=0;orthogonalLoop=1;jettySize=auto;html=1;entryX=0.5;entryY=1;entryDx=0;entryDy=0;strokeColor=#66FF66;flowAnimation=1;dashed=1;strokeWidth=2;startArrow=classic;startFill=1;" edge="1" parent="1" source="FF-R6CvPEgAhkOxUqDVy-50" target="FF-R6CvPEgAhkOxUqDVy-48">
          <mxGeometry relative="1" as="geometry" />
        </mxCell>
        <mxCell id="FF-R6CvPEgAhkOxUqDVy-50" value="" style="verticalLabelPosition=bottom;html=1;verticalAlign=top;strokeWidth=1;align=center;outlineConnect=0;dashed=0;outlineConnect=0;shape=mxgraph.aws3d.searchEngine;fillColor=#ECECEC;strokeColor=#5E5E5E;aspect=fixed;" vertex="1" parent="1">
          <mxGeometry x="1455" y="870.0000000000001" width="130" height="138.67" as="geometry" />
        </mxCell>
        <mxCell id="FF-R6CvPEgAhkOxUqDVy-52" style="edgeStyle=orthogonalEdgeStyle;rounded=0;orthogonalLoop=1;jettySize=auto;html=1;entryX=0.776;entryY=1.021;entryDx=0;entryDy=0;entryPerimeter=0;strokeWidth=2;flowAnimation=1;dashed=1;strokeColor=#FFFF33;" edge="1" parent="1" source="FF-R6CvPEgAhkOxUqDVy-48" target="FF-R6CvPEgAhkOxUqDVy-5">
          <mxGeometry relative="1" as="geometry" />
        </mxCell>
        <mxCell id="FF-R6CvPEgAhkOxUqDVy-53" style="edgeStyle=orthogonalEdgeStyle;rounded=0;orthogonalLoop=1;jettySize=auto;html=1;entryX=0;entryY=0.5;entryDx=0;entryDy=0;entryPerimeter=0;strokeWidth=2;strokeColor=#FF0080;" edge="1" parent="1" target="FF-R6CvPEgAhkOxUqDVy-47">
          <mxGeometry relative="1" as="geometry">
            <mxPoint x="1050" y="671" as="sourcePoint" />
            <Array as="points">
              <mxPoint x="1041" y="671" />
            </Array>
          </mxGeometry>
        </mxCell>
        <mxCell id="FF-R6CvPEgAhkOxUqDVy-55" value="&lt;font style=&quot;font-size: 20px; color: rgb(255, 255, 255);&quot;&gt;&lt;b style=&quot;&quot;&gt;Search Index&lt;/b&gt;&lt;/font&gt;" style="text;html=1;align=center;verticalAlign=middle;whiteSpace=wrap;rounded=0;" vertex="1" parent="1">
          <mxGeometry x="1490" y="1020" width="60" height="30" as="geometry" />
        </mxCell>
        <mxCell id="FF-R6CvPEgAhkOxUqDVy-56" value="" style="endArrow=none;dashed=1;html=1;rounded=0;strokeWidth=2;strokeColor=#66FF66;" edge="1" parent="1">
          <mxGeometry width="50" height="50" relative="1" as="geometry">
            <mxPoint x="2000" y="1120" as="sourcePoint" />
            <mxPoint x="2000" y="-360" as="targetPoint" />
          </mxGeometry>
        </mxCell>
        <mxCell id="FF-R6CvPEgAhkOxUqDVy-61" value="" style="endArrow=none;dashed=1;html=1;strokeWidth=2;rounded=0;strokeColor=#66FF66;" edge="1" parent="1">
          <mxGeometry width="50" height="50" relative="1" as="geometry">
            <mxPoint x="40" y="1120" as="sourcePoint" />
            <mxPoint x="2000" y="1120" as="targetPoint" />
          </mxGeometry>
        </mxCell>
        <mxCell id="FF-R6CvPEgAhkOxUqDVy-62" value="" style="endArrow=none;dashed=1;html=1;rounded=0;strokeWidth=2;strokeColor=#66FF66;" edge="1" parent="1">
          <mxGeometry width="50" height="50" relative="1" as="geometry">
            <mxPoint x="40" y="1120" as="sourcePoint" />
            <mxPoint x="40" y="-360" as="targetPoint" />
          </mxGeometry>
        </mxCell>
        <mxCell id="FF-R6CvPEgAhkOxUqDVy-64" style="edgeStyle=orthogonalEdgeStyle;rounded=0;orthogonalLoop=1;jettySize=auto;html=1;entryX=0.375;entryY=0;entryDx=0;entryDy=0;strokeWidth=2;strokeColor=#FF0080;" edge="1" parent="1" source="FF-R6CvPEgAhkOxUqDVy-63" target="FF-R6CvPEgAhkOxUqDVy-48">
          <mxGeometry relative="1" as="geometry" />
        </mxCell>
        <mxCell id="FF-R6CvPEgAhkOxUqDVy-63" value="" style="verticalLabelPosition=bottom;html=1;verticalAlign=top;align=center;strokeColor=none;fillColor=#00BEF2;shape=mxgraph.azure.queue_generic;pointerEvents=1;direction=east;" vertex="1" parent="1">
          <mxGeometry x="1310.66" y="520" width="89" height="35" as="geometry" />
        </mxCell>
        <mxCell id="FF-R6CvPEgAhkOxUqDVy-65" style="edgeStyle=orthogonalEdgeStyle;rounded=0;orthogonalLoop=1;jettySize=auto;html=1;exitX=1;exitY=0.75;exitDx=0;exitDy=0;entryX=0;entryY=0.5;entryDx=0;entryDy=0;entryPerimeter=0;strokeWidth=2;strokeColor=#FF0080;" edge="1" parent="1" source="vNuuODAQqOZ8VfHXZ4Zw-9" target="FF-R6CvPEgAhkOxUqDVy-63">
          <mxGeometry relative="1" as="geometry">
            <Array as="points">
              <mxPoint x="901" y="490" />
              <mxPoint x="1116" y="490" />
              <mxPoint x="1116" y="538" />
            </Array>
          </mxGeometry>
        </mxCell>
        <mxCell id="FF-R6CvPEgAhkOxUqDVy-66" value="" style="image;aspect=fixed;html=1;points=[];align=center;fontSize=12;image=img/lib/azure2/other/API_Proxy.svg;direction=north;" vertex="1" parent="1">
          <mxGeometry x="898" y="-390" width="204" height="204" as="geometry" />
        </mxCell>
        <mxCell id="FF-R6CvPEgAhkOxUqDVy-67" style="edgeStyle=orthogonalEdgeStyle;rounded=0;orthogonalLoop=1;jettySize=auto;html=1;entryX=0.013;entryY=0.505;entryDx=0;entryDy=0;entryPerimeter=0;strokeColor=#FFFF33;strokeWidth=2;flowAnimation=1;dashed=1;startArrow=classic;startFill=1;" edge="1" parent="1" source="FF-R6CvPEgAhkOxUqDVy-5" target="FF-R6CvPEgAhkOxUqDVy-66">
          <mxGeometry relative="1" as="geometry" />
        </mxCell>
        <mxCell id="FF-R6CvPEgAhkOxUqDVy-68" value="" style="endArrow=none;dashed=1;html=1;rounded=0;strokeWidth=2;strokeColor=#66FF66;" edge="1" parent="1">
          <mxGeometry width="50" height="50" relative="1" as="geometry">
            <mxPoint x="40" y="-360" as="sourcePoint" />
            <mxPoint x="2000" y="-360" as="targetPoint" />
          </mxGeometry>
        </mxCell>
        <mxCell id="FF-R6CvPEgAhkOxUqDVy-69" value="&lt;font style=&quot;font-size: 23px;&quot;&gt;&lt;b style=&quot;&quot;&gt;Reverse Proxy&lt;/b&gt;&lt;/font&gt;" style="text;html=1;align=center;verticalAlign=middle;whiteSpace=wrap;rounded=0;" vertex="1" parent="1">
          <mxGeometry x="1090" y="-310" width="60" height="30" as="geometry" />
        </mxCell>
      </root>
    </mxGraphModel>
  </diagram>
</mxfile>
